<?xml version="1.0" standalone="no"?>
<!DOCTYPE svg PUBLIC "-//W3C//DTD SVG 1.1//EN" "http://www.w3.org/Graphics/SVG/1.1/DTD/svg11.dtd">
<svg xmlns="http://www.w3.org/2000/svg" id="Layer_1" data-name="Layer 1" viewBox="0 0 527.89 111.06" width="527.8900146484375" height="111.05999755859375"><defs><style>.cls-1{fill:#231f20;}.cls-2{fill:none;}</style></defs><title>AURENEX TEXT</title><path class="cls-1" d="M314.51,484.94l-38.63,95.2H290l24.47-67.2L339,580.13h14.16Z" transform="translate(-275.89 -484.94)"/><path class="cls-1" d="M406.54,514.81v46.67q0,4.66-4.66,4.66h-28c-3.13,0-4.68-1.55-4.68-4.66V514.81h-14v46.67q0,18.67,18.68,18.66h28q18.67,0,18.66-18.66V514.81Z" transform="translate(-275.89 -484.94)"/><path class="cls-1" d="M477.07,561.48q18.13-.24,18.14-18.68v-9.32q0-18.67-18.66-18.68H429.88v65.33h14v-32l13.3,13.3,18.68,18.66h19.87Zm-33.19-14V528.8h32.67c3.11,0,4.66,1.55,4.66,4.68v9.32c0,3.13-1.55,4.68-4.66,4.68Z" transform="translate(-275.89 -484.94)"/><path class="cls-1" d="M569.88,528.8v-14H504.55v65.33h65.33v-14H518.54V554.47h51.33v-14H518.54V528.8Z" transform="translate(-275.89 -484.94)"/><path class="cls-1" d="M630.55,514.81v41.44l-51.33-57.3v81.2h14V538.7L644.54,596v-81.2Z" transform="translate(-275.89 -484.94)"/><path class="cls-1" d="M653.88,514.81v65.33h65.33v-14H667.88V554.47h51.33v-14H667.88V528.8h51.33v-14Z" transform="translate(-275.89 -484.94)"/><path class="cls-1" d="M803.77,514.81H784l-22.78,22.78-22.78-22.78H718.65l32.67,32.67-32.12,32.1-.56.56h19.79l22.78-22.76L784,580.13h19.77l-32.65-32.65Z" transform="translate(-275.89 -484.94)"/><path class="cls-2" d="M434.44,577.9" transform="translate(-275.89 -484.94)"/><path class="cls-2" d="M448.44,545.23" transform="translate(-275.89 -484.94)"/></svg>