<?xml version="1.0" encoding="utf-8"?>
<!-- Generator: Adobe Illustrator 24.2.3, SVG Export Plug-In . SVG Version: 6.00 Build 0)  -->
<svg version="1.1" id="Layer_1" xmlns="http://www.w3.org/2000/svg" xmlns:xlink="http://www.w3.org/1999/xlink" x="0px" y="0px"
	 viewBox="0 0 527.9 111.1" style="enable-background:new 0 0 527.9 111.1;" xml:space="preserve">
<style type="text/css">
	.st0{fill:#FFFFFF;}
</style>
<path class="st0" d="M38.6,0L0,95.2h14.1L38.6,28l24.5,67.2h14.2L38.6,0z"/>
<path class="st0" d="M130.6,29.9v46.7c0,3.1-1.6,4.7-4.7,4.7H98c-3.1,0-4.7-1.5-4.7-4.7V29.9h-14v46.7c0,12.4,6.2,18.7,18.7,18.7h28
	c12.4,0,18.7-6.2,18.7-18.7V29.9H130.6z"/>
<path class="st0" d="M201.2,76.5c12.1-0.2,18.1-6.4,18.1-18.7v-9.3c0-12.4-6.2-18.7-18.7-18.7H154v65.3h14v-32l13.3,13.3L200,95.1
	h19.9L201.2,76.5z M168,62.5V43.9h32.7c3.1,0,4.7,1.5,4.7,4.7v9.3c0,3.1-1.5,4.7-4.7,4.7H168z"/>
<path class="st0" d="M294,43.9v-14h-65.3v65.3H294v-14h-51.3V69.5H294v-14h-51.3V43.9H294z"/>
<path class="st0" d="M354.7,29.9v41.4L303.3,14v81.2h14V53.8l51.3,57.3V29.9L354.7,29.9z"/>
<path class="st0" d="M378,29.9v65.3h65.3v-14H392V69.5h51.3v-14H392V43.9h51.3v-14L378,29.9z"/>
<path class="st0" d="M527.9,29.9h-19.8l-22.8,22.8l-22.8-22.8h-19.8l32.7,32.7l-32.1,32.1l-0.6,0.6h19.8l22.8-22.8l22.8,22.8h19.8
	l-32.7-32.7L527.9,29.9z"/>
<path class="st0" d="M158.5,93"/>
<path class="st0" d="M172.5,60.3"/>
</svg>
